<?xml version="1.0" encoding="iso-8859-1"?>
<!-- Generator: Adobe Illustrator 19.0.0, SVG Export Plug-In . SVG Version: 6.00 Build 0)  -->
<svg version="1.1" id="Capa_1" xmlns="http://www.w3.org/2000/svg" xmlns:xlink="http://www.w3.org/1999/xlink" x="0px" y="0px"
	 viewBox="0 0 511.999 511.999" style="enable-background:new 0 0 511.999 511.999;" xml:space="preserve" width="512px" height="512px">
<path style="fill:#FEB756;" d="M467.029,318.57c-3.04-7.59-10.39-12.57-18.57-12.57h-29.46l-34.97-87.43
	c-3.04-7.59-10.39-12.57-18.57-12.57h-29.46l-34.97-87.43c-3.04-7.59-10.39-12.57-18.57-12.57h-52.92
	c-8.18,0-15.53,4.98-18.57,12.57L175.999,206h-29.46c-8.18,0-15.53,4.98-18.57,12.57L92.999,306h-29.46
	c-8.18,0-15.53,4.98-18.57,12.57L9.999,406h166l-37.97-87.43c-3.04-7.59-10.39-12.57-18.57-12.57h110.08
	c-8.18,0-15.53,4.98-18.57,12.57L175.999,406h160l-34.97-87.43c-3.04-7.59-10.39-12.57-18.57-12.57h110.08
	c-8.18,0-15.53,4.98-18.57,12.57L335.999,406h166L467.029,318.57z M290.969,218.57L255.999,306l-34.97-87.43
	c-3.04-7.59-10.39-12.57-18.57-12.57h107.08C301.359,206,294.009,210.98,290.969,218.57z"/>
<path d="M511.284,402.286l-34.972-87.434C471.726,303.4,460.793,296,448.459,296h-22.69l-32.457-81.148
	C388.726,203.4,377.793,196,365.459,196h-22.69l-32.457-81.148C305.726,103.4,294.793,96,282.459,96h-52.92
	c-12.334,0-23.267,7.4-27.854,18.856L169.229,196h-22.69c-12.334,0-23.267,7.4-27.854,18.856L86.229,296h-22.69
	c-12.334,0-23.267,7.4-27.854,18.856l-34.97,87.43c-1.232,3.081-0.856,6.573,1.004,9.32S6.681,416,9.999,416
	c32.041,0,472.515,0,492,0c3.318,0,6.42-1.646,8.281-4.394C512.141,408.858,512.516,405.367,511.284,402.286z M365.459,216
	c4.112,0,7.757,2.468,9.285,6.284L404.229,296h-133.46l29.483-73.712c1.53-3.82,5.175-6.288,9.287-6.288h26.46H365.459z
	 M336.379,380.022L310.771,316h53.411L336.379,380.022z M255.999,279.073L230.771,216h50.456L255.999,279.073z M220.252,122.288
	c1.53-3.82,5.175-6.288,9.287-6.288h52.92c4.112,0,7.757,2.468,9.285,6.284L321.229,196h-118.77h-11.69L220.252,122.288z
	 M137.252,222.288c1.53-3.82,5.175-6.288,9.287-6.288h55.92c4.112,0,7.757,2.468,9.285,6.284L241.229,296h-133.46L137.252,222.288z
	 M175.619,380.022L147.815,316h53.412L175.619,380.022z M24.769,396l29.483-73.712c1.53-3.82,5.175-6.288,9.287-6.288h29.46h26.46
	c4.112,0,7.757,2.468,9.287,6.288c0.036,0.089,0.073,0.178,0.111,0.266L160.754,396H24.769z M190.769,396l29.483-73.712
	c1.53-3.82,5.175-6.288,9.287-6.288h26.46h26.46c4.112,0,7.757,2.468,9.285,6.284L321.229,396H190.769z M351.244,396l31.897-73.447
	c0.038-0.088,0.075-0.177,0.111-0.266c1.53-3.82,5.175-6.288,9.287-6.288h26.46h29.46c4.112,0,7.757,2.468,9.285,6.284L487.229,396
	H351.244z"/>
<path d="M245.999,156h20c5.523,0,10-4.477,10-10s-4.477-10-10-10h-20c-5.523,0-10,4.477-10,10S240.476,156,245.999,156z"/>
<g>
</g>
<g>
</g>
<g>
</g>
<g>
</g>
<g>
</g>
<g>
</g>
<g>
</g>
<g>
</g>
<g>
</g>
<g>
</g>
<g>
</g>
<g>
</g>
<g>
</g>
<g>
</g>
<g>
</g>
</svg>
