<svg height="512" viewBox="0 0 52 60" width="512" xmlns="http://www.w3.org/2000/svg"><g id="047---Ticket-Booth" fill="none"><g id="Icons" transform="translate(1 1)"><path id="Shape" d="m9 40v18.0000016l-6-.0000016c-.27594711.0004972-.53983452-.1130554-.72919537-.313778-.18936086-.2007225-.28736193-.4707716-.27080463-.746222v-16.94z" fill="#91562d"/><path id="Rectangle-path" d="m9 40h8v18h-8z" fill="#6d4122"/><path id="Rectangle-path" d="m17 40h8v18h-8z" fill="#91562d"/><path id="Rectangle-path" d="m25 40h8v18h-8z" fill="#6d4122"/><path id="Rectangle-path" d="m33 40h8v18h-8z" fill="#91562d"/><path id="Shape" d="m48 40v16.94c.0165573.2754504-.0814438.5454995-.2708046.746222-.1893609.2007226-.4532483.3142752-.7291954.313778l-6 .0000016v-18.0000016z" fill="#6d4122"/><path id="Rectangle-path" d="m2 18h6v16h-6z" fill="#dfc49c"/><path id="Rectangle-path" d="m2 18h3v16h-3z" fill="#ffe0b2"/><path id="Rectangle-path" d="m42 18h6v16h-6z" fill="#dfc49c"/><path id="Rectangle-path" d="m42 18h3v16h-3z" fill="#ffe0b2"/><rect id="Rectangle-path" fill="#783e22" height="18" rx="1" width="50"/><rect id="Rectangle-path" fill="#a0522d" height="18" rx="1" width="47"/><rect id="Rectangle-path" fill="#783e22" height="6" rx="1" width="50" y="34"/><rect id="Rectangle-path" fill="#a0522d" height="6" rx="1" width="47" y="34"/><path id="Shape" d="m33.37 10.9c.387597.1542606.638711.5329246.63.95v1.15c0 .5522847-.4477153 1-1 1h-16c-.5522847 0-1-.4477153-1-1v-1.15c-.008711-.4170754.242403-.7957394.63-.95.8207491-.2697672 1.3755002-1.03605361 1.3755002-1.9s-.5547511-1.63023283-1.3755002-1.9c-.387597-.15426058-.638711-.53292463-.63-.95v-1.15c0-.55228475.4477153-1 1-1h16c.5522847 0 1 .44771525 1 1v1.15c.008711.41707537-.242403.79573942-.63.95-.8207491.26976717-1.3755002 1.03605361-1.3755002 1.9s.5547511 1.6302328 1.3755002 1.9z" fill="#fec108"/><path id="Shape" d="m30.37 10.9c.387597.1542606.638711.5329246.63.95v1.15c0 .5522847-.4477153 1-1 1h-13c-.5522847 0-1-.4477153-1-1v-1.15c-.008711-.4170754.242403-.7957394.63-.95.8207491-.2697672 1.3755002-1.03605361 1.3755002-1.9s-.5547511-1.63023283-1.3755002-1.9c-.387597-.15426058-.638711-.53292463-.63-.95v-1.15c0-.55228475.4477153-1 1-1h13c.5522847 0 1 .44771525 1 1v1.15c.008711.41707537-.242403.79573942-.63.95-.8207491.26976717-1.3755002 1.03605361-1.3755002 1.9s.5547511 1.6302328 1.3755002 1.9z" fill="#ffdc00"/></g><g id="Layer_2" fill="#000"><path id="Shape" d="m34 4h-16c-1.1045695 0-2 .8954305-2 2v1.15c-.0096318.84680722.5151129 1.60788739 1.31 1.9.4103745.13488359.6877501.5180268.6877501.95s-.2773756.8151164-.6877501.95c-.7948871.2921126-1.3196318 1.0531928-1.31 1.9v1.15c0 1.1045695.8954305 2 2 2h16c1.1045695 0 2-.8954305 2-2v-1.15c-.011299-.8284875-.5322788-1.5642223-1.31-1.85-.4103745-.1348836-.6877501-.5180268-.6877501-.95s.2773756-.81511641.6877501-.95c.8126201-.2980505 1.3412961-1.08501097 1.31-1.95v-1.15c0-1.1045695-.8954305-2-2-2zm0 8.85v1.15h-16v-1.15c1.2311236-.4046508 2.0632503-1.5540804 2.0632503-2.85 0-1.29591959-.8321267-2.44534924-2.0632503-2.85v-1.15h16v1.15c-1.2311236.40465076-2.0632503 1.55408041-2.0632503 2.85 0 1.2959196.8321267 2.4453492 2.0632503 2.85z"/><path id="Shape" d="m50 0h-48c-1.1045695 0-2 .8954305-2 2v16c0 1.1045695.8954305 2 2 2v14c-1.1045695 0-2 .8954305-2 2v4c0 1.1045695.8954305 2 2 2v16c0 1.1045695.8954305 2 2 2h44c1.1045695 0 2-.8954305 2-2v-16c1.1045695 0 2-.8954305 2-2v-4c0-1.1045695-.8954305-2-2-2v-14c1.1045695 0 2-.8954305 2-2v-16c0-1.1045695-.8954305-2-2-2zm-46 20h4v14h-4zm38 0v14h-32v-14zm-38 22h5v16h-5zm13 0v16h-6v-16zm8 0v16h-6v-16zm8 0v16h-6v-16zm8 0v16h-6v-16zm7 16h-5v-16h5zm2-18h-48v-4h48zm-2-6h-4v-14h4zm-46-16v-16h48v16z"/><path id="Shape" d="m6 4h-1c-.55228475 0-1 .44771525-1 1s.44771525 1 1 1h1c.55228475 0 1-.44771525 1-1s-.44771525-1-1-1z"/><path id="Shape" d="m6 14h-1c-.55228475 0-1 .4477153-1 1s.44771525 1 1 1h1c.55228475 0 1-.4477153 1-1s-.44771525-1-1-1z"/><path id="Shape" d="m47 4h-1c-.5522847 0-1 .44771525-1 1s.4477153 1 1 1h1c.5522847 0 1-.44771525 1-1s-.4477153-1-1-1z"/><path id="Shape" d="m47 14h-1c-.5522847 0-1 .4477153-1 1s.4477153 1 1 1h1c.5522847 0 1-.4477153 1-1s-.4477153-1-1-1z"/></g></g></svg>