<?xml version="1.0"?>
<svg xmlns="http://www.w3.org/2000/svg" xmlns:xlink="http://www.w3.org/1999/xlink" version="1.1" id="Capa_1" x="0px" y="0px" viewBox="0 0 511.999 511.999" style="enable-background:new 0 0 511.999 511.999;" xml:space="preserve" width="512px" height="512px" class=""><g><link xmlns="" type="text/css" id="dark-mode" rel="stylesheet" href=""/><style xmlns="" type="text/css" id="dark-mode-custom-style"/><polygon style="fill:#EDE19A" points="448.39,456.414 63.592,456.414 63.592,328.148 255.991,151.783 448.39,328.148 " data-original="#FDF2DD" class="" data-old_color="#FDF2DD"/><polygon style="fill:#D7C667" points="272.024,166.48 255.991,151.783 63.592,328.148 63.592,456.414 95.659,456.414   95.659,328.148 " data-original="#FCE6BA" class="" data-old_color="#FCE6BA"/><polygon style="fill:#F8F804" points="255.991,111.7 7.476,328.148 135.742,328.148 255.991,231.949 368.224,328.148   504.506,328.148 " data-original="#F8CD76" class="" data-old_color="#F8CD76"/><path style="fill:#DDDD02" d="M357.621,200.217L255.99,111.701L7.475,328.15h40.083l142.358-123.989  c2.919-2.542,6.66-3.943,10.53-3.943L357.621,200.217L357.621,200.217z" data-original="#F6C053" class="" data-old_color="#F6C053"/><polygon style="fill:#F8CD76" points="255.991,79.634 368.224,175.833 135.742,175.833 " data-original="#F08568" class="" data-old_color="#F08568"/><polygon style="fill:#F6C053" points="255.991,79.634 135.742,175.833 169.144,175.833 272.116,93.455 " data-original="#ED6D4A" class="" data-old_color="#ED6D4A"/><rect x="191.857" y="328.15" style="fill:#C5EE10" width="128.266" height="128.266" data-original="#995F9F" class="" data-old_color="#995F9F"/><rect x="191.857" y="328.15" style="fill:#A1C30A" width="32.397" height="128.266" data-original="#8B4891" class="" data-old_color="#8B4891"/><path d="M510.466,460.981c2.052-2.671,2.046-6.516-0.028-9.18l-54.533-70.114v-46.022h48.601c6.788,0,10.067-8.714,4.936-13.183  l-114.746-99.94c-3.131-2.726-7.878-2.399-10.603,0.732c-2.727,3.13-2.4,7.877,0.731,10.604l99.61,86.758h-24.915l-21.848-21.848  c-2.936-2.935-7.694-2.935-10.629,0c-2.935,2.935-2.935,7.694,0,10.628l11.22,11.22h-18.825l-21.848-21.848  c-2.936-2.935-7.694-2.935-10.629,0c-2.935,2.935-2.935,7.694,0,10.628l11.22,11.22h-27.175l-110.122-94.39  c-2.742-2.35-6.766-2.419-9.586-0.162l-118.191,94.551h-19.302l11.22-11.22c2.935-2.935,2.935-7.694,0-10.628  c-2.936-2.935-7.694-2.935-10.629,0l-21.848,21.848H73.72l11.22-11.22c2.935-2.935,2.935-7.694,0-10.628  c-2.936-2.935-7.694-2.935-10.629,0l-21.848,21.848H27.548c0,0,157.107-136.903,157.402-137.285h142.939  c0.432,0.972,27.627,25.002,27.627,25.002c3.303,2.876,8.496,2.254,11.046-1.294c2.233-3.104,1.707-7.533-1.174-10.042  l-15.691-13.666h18.526c3.146,0,5.957-1.958,7.049-4.908c1.091-2.949,0.229-6.267-2.157-8.313l-109.607-93.95V55.584  c0-4.151-3.364-7.516-7.516-7.516c-4.152,0-7.516,3.365-7.516,7.516v20.437l-117.429,93.943c-2.506,2.005-3.466,5.485-2.346,8.492  c1.083,2.909,3.936,4.892,7.042,4.892h26.543L2.54,322.482c-5.131,4.469-1.852,13.183,4.936,13.183h48.601v46.022L1.544,451.802  c-3.771,4.842-0.189,12.129,5.936,12.129h497.022C506.826,463.93,509.056,462.82,510.466,460.981z M255.826,89.391l92.082,78.927  h-31.156l-5.939-11.879c-1.855-3.713-6.367-5.218-10.084-3.361c-3.712,1.856-5.217,6.37-3.361,10.083l2.578,5.157h-36.44V159.8  c0-4.151-3.364-7.516-7.516-7.516c-4.152,0-7.516,3.365-7.516,7.516v8.518h-36.441l2.578-5.157  c1.857-3.713,0.352-8.227-3.361-10.083c-3.715-1.858-8.228-0.351-10.084,3.361l-5.939,11.879h-38.063L255.826,89.391z   M489.139,448.899h-33.235v-42.73L489.139,448.899z M255.826,241.706l104.882,89.899V448.9H327.64V328.15  c0-4.151-3.364-7.516-7.516-7.516H191.858c-4.152,0-7.516,3.365-7.516,7.516V448.9h-41.085V331.761L255.826,241.706z   M56.077,448.899H22.842l33.235-42.73V448.899z M71.108,335.664h57.118v113.235H71.108V335.664z M199.374,448.899V335.664h113.235  v113.235H199.374z M375.739,448.899V335.664h65.135v113.235H375.739z" data-original="#000000" class="active-path" data-old_color="#000000" style="fill:#000000"/></g> </svg>
