<?xml version="1.0" encoding="iso-8859-1"?>
<!-- Generator: Adobe Illustrator 19.0.0, SVG Export Plug-In . SVG Version: 6.00 Build 0)  -->
<svg version="1.1" id="Layer_1" xmlns="http://www.w3.org/2000/svg" xmlns:xlink="http://www.w3.org/1999/xlink" x="0px" y="0px"
	 viewBox="0 0 512.001 512.001" style="enable-background:new 0 0 512.001 512.001;" xml:space="preserve" width="512px" height="512px">
<polygon style="fill:#057091;" points="49.645,219.335 84.894,493.933 427.107,493.933 462.356,219.335 "/>
<polygon style="fill:#FE9A4D;" points="256.001,253.677 130.091,493.933 381.911,493.933 "/>
<path d="M256.001,336.568c-0.707,0-1.424-0.076-2.12-0.217c-0.696-0.141-1.381-0.348-2.033-0.62c-0.663-0.272-1.294-0.609-1.881-1
	c-0.598-0.39-1.152-0.847-1.652-1.347c-0.5-0.5-0.957-1.065-1.348-1.654c-0.391-0.598-0.728-1.229-1-1.88
	c-0.272-0.653-0.478-1.337-0.62-2.033c-0.141-0.697-0.217-1.414-0.217-2.12c0-0.707,0.076-1.425,0.217-2.131
	c0.13-0.697,0.348-1.37,0.62-2.033c0.272-0.652,0.609-1.283,1-1.87c0.391-0.599,0.848-1.153,1.348-1.654
	c0.5-0.511,1.055-0.957,1.652-1.359c0.587-0.39,1.218-0.728,1.881-1c0.652-0.272,1.337-0.477,2.033-0.62
	c3.522-0.706,7.284,0.446,9.806,2.979c0.501,0.5,0.958,1.055,1.348,1.654c0.391,0.587,0.728,1.218,1,1.87
	c0.272,0.663,0.478,1.336,0.62,2.033c0.141,0.706,0.217,1.424,0.217,2.131c0,0.706-0.076,1.424-0.217,2.12s-0.348,1.381-0.62,2.033
	c-0.272,0.652-0.609,1.283-1,1.88c-0.39,0.587-0.847,1.153-1.348,1.654C261.665,335.404,258.86,336.568,256.001,336.568z"/>
<path style="fill:#FF5D51;" d="M305.969,86.962l-49.967-48.815l-49.969,48.817c-19.724,19.27-39.997,37.316-60.782,54.831h221.503
	C345.965,124.279,325.693,106.232,305.969,86.962z"/>
<path style="fill:#CC7400;" d="M366.753,141.795H145.249c-17.312,14.588-34.978,28.809-52.995,43.049l-42.704,33.756l0.095,0.734
	h412.712l0.095-0.734l-42.707-33.758C401.73,170.602,384.064,156.382,366.753,141.795z"/>
<path d="M511.166,487.55l-55.22-132.88l17.196-133.951c0-0.002,0-0.005,0-0.005l0.001-0.005l0.094-0.734
	c0.48-3.782-1.052-7.539-4.043-9.902l-42.706-33.76c-20.909-16.528-37.664-30.138-52.726-42.83c-0.001,0-0.001-0.001-0.002-0.002
	c-22.596-19.041-42.285-36.801-60.193-54.296L273.293,39.84l19.402-12.669c5.027-3.283,6.441-10.019,3.158-15.047
	c-3.282-5.026-10.016-6.444-15.047-3.158l-24.805,16.197L231.195,8.965c-5.027-3.283-11.764-1.868-15.046,3.158
	c-3.283,5.028-1.869,11.764,3.159,15.047l19.403,12.669l-40.275,39.346c-17.914,17.501-37.602,35.261-60.191,54.294
	c-15.044,12.677-31.799,26.289-52.731,42.834l-42.704,33.757c-2.992,2.366-4.527,6.126-4.042,9.909l0.093,0.734c0,0,0,0.002,0,0.003
	l0,0l17.195,133.95L0.835,487.55c-2.305,5.546,0.323,11.908,5.867,14.211c1.364,0.566,2.777,0.836,4.167,0.836
	c4.261,0,8.306-2.522,10.043-6.702l40.699-97.936l12.498,97.358c0.696,5.424,5.314,9.488,10.782,9.488h45.198h251.819h45.196
	c5.468,0,10.087-4.063,10.784-9.488l12.498-97.358l40.699,97.936c1.737,4.18,5.782,6.702,10.043,6.702
	c1.39,0,2.804-0.269,4.168-0.836C510.843,499.458,513.469,493.096,511.166,487.55z M213.63,94.741l42.372-41.395l42.37,41.393
	c12.136,11.855,25.055,23.815,39.094,36.185H174.537C188.573,118.558,201.493,106.597,213.63,94.741z M98.996,193.372
	c19.716-15.586,35.78-28.606,50.214-40.705h213.58c14.452,12.114,30.513,25.134,50.213,40.703l19.093,15.093H79.907L98.996,193.372z
	 M266.872,483.061V361.569c0-6.003-4.868-10.872-10.872-10.872c-6.004,0-10.872,4.868-10.872,10.872v121.492h-97.066
	l107.938-205.962l107.939,205.962L266.872,483.061L266.872,483.061z M417.542,483.061h-29.054l-122.857-234.43
	c-1.878-3.581-5.587-5.825-9.629-5.825c-4.043,0-7.753,2.244-9.629,5.825l-122.858,234.43H94.459L62.001,230.206h388
	L417.542,483.061z"/>
<g>
</g>
<g>
</g>
<g>
</g>
<g>
</g>
<g>
</g>
<g>
</g>
<g>
</g>
<g>
</g>
<g>
</g>
<g>
</g>
<g>
</g>
<g>
</g>
<g>
</g>
<g>
</g>
<g>
</g>
</svg>
